<?xml version="1.0" standalone="no"?>
<!DOCTYPE svg PUBLIC "-//W3C//DTD SVG 20010904//EN"
 "http://www.w3.org/TR/2001/REC-SVG-20010904/DTD/svg10.dtd">
<svg version="1.0" xmlns="http://www.w3.org/2000/svg"
 width="300.000000pt" height="300.000000pt" viewBox="0 0 300.000000 300.000000"
 preserveAspectRatio="xMidYMid meet">
    <g transform="translate(0.000000,300.000000) scale(0.100000,-0.100000)"
    fill="#357BF9" stroke="none">
        <path d="M354 2703 c16 -157 85 -412 143 -526 l24 -48 45 91 c24 50 58 113 76 138 42 61 162 178 232 227 60 41 66 50 39 58 -10 2 -65 19 -123 35 -109 32 -385 92 -422 92 -20 0 -20 -3 -14 -67z"/>
        <path d="M2440 2736 c-221 -50 -376 -97 -360 -108 200 -142 312 -270 381 -435 12 -29 25 -53 29 -53 11 0 65 127 95 223 31 102 74 316 75 370 0 36 -1 37 -37 36 -21 0 -103 -15 -183 -33z"/>
        <path d="M1345 2656 c-196 -32 -352 -112 -495 -256 -191 -190 -280 -419 -267 -685 8 -144 34 -245 101 -380 67 -135 138 -218 222 -260 75 -36 183 -40 255 -8 108 48 170 135 177 249 6 88 -6 124 -78 244 -63 105 -74 138 -68 219 6 77 23 116 81 178 153 166 408 123 505 -85 l27 -57 3 -322 c5 -427 -6 -490 -100 -580 -80 -76 -154 -93 -404 -93 -184 0 -213 -5 -281 -52 -81 -55 -125 -145 -125 -253 1 -87 31 -153 98 -214 87 -79 110 -84 412 -79 222 4 268 8 335 26 244 67 463 248 577 477 86 174 99 270 100 710 0 428 -17 560 -96 717 -93 189 -277 365 -463 443 -152 64 -355 88 -516 61z"/>
    </g>
</svg>
